<?xml version="1.0" standalone="no"?>
<!DOCTYPE svg PUBLIC "-//W3C//DTD SVG 20010904//EN"
 "http://www.w3.org/TR/2001/REC-SVG-20010904/DTD/svg10.dtd">
<svg version="1.0" xmlns="http://www.w3.org/2000/svg"
 width="1280.000000pt" height="1270.000000pt" viewBox="0 0 1280.000000 1270.000000"
 preserveAspectRatio="xMidYMid meet">

<g transform="translate(0.000000,1270.000000) scale(0.100000,-0.100000)"
fill="#000000" stroke="none">
<path d="M6193 12689 c-283 -27 -555 -183 -733 -419 -58 -77 -145 -260 -169
-356 -113 -451 62 -906 446 -1156 79 -51 292 -150 306 -141 5 3 7 1 4 -4 -4
-6 0 -14 9 -17 24 -9 31 -7 14 5 -11 8 -8 9 15 5 76 -14 175 -26 225 -26 90 0
245 27 338 60 118 41 131 45 112 30 -13 -10 -13 -11 0 -7 8 2 15 10 15 18 0 7
8 15 19 17 13 3 16 0 11 -9 -5 -8 -4 -10 4 -5 6 4 9 11 6 16 -3 5 3 14 14 19
26 14 34 14 25 -1 -4 -7 -3 -8 5 -4 6 4 9 11 6 16 -3 5 3 14 14 19 26 14 34
14 25 -1 -4 -8 -3 -10 2 -5 5 5 9 12 9 15 0 13 16 32 26 32 6 0 7 -6 3 -12 -4
-8 -3 -10 2 -5 5 5 9 12 9 15 0 13 16 32 26 32 6 0 7 -6 3 -12 -4 -7 5 -2 19
11 15 13 24 27 22 31 -2 4 21 31 53 61 31 30 48 44 38 32 -29 -35 -14 -27 20
9 16 18 21 26 12 19 -11 -8 -18 -9 -18 -3 0 11 19 27 32 27 3 0 10 4 15 9 5 5
3 6 -4 2 -19 -11 -16 1 9 34 11 16 26 26 31 23 6 -3 7 -1 3 5 -9 15 12 54 24
47 6 -4 7 1 3 11 -5 13 -3 15 7 9 8 -5 11 -4 6 3 -8 13 14 63 25 57 4 -3 11 0
15 6 4 8 3 9 -4 5 -16 -9 -16 -13 18 85 95 273 76 569 -54 827 -20 40 -34 77
-31 83 4 5 1 8 -6 7 -6 -2 -14 3 -17 11 -3 9 0 11 9 6 8 -5 11 -4 6 1 -5 5
-14 9 -20 9 -5 0 -12 6 -15 14 -3 9 0 11 9 5 12 -7 12 -5 0 9 -16 20 -25 22
-16 5 4 -7 -3 -2 -14 11 -12 12 -18 28 -14 34 3 5 2 7 -4 4 -13 -8 -57 38 -49
51 3 5 -11 24 -32 43 l-37 34 35 -39 c26 -30 16 -23 -40 24 -41 35 -74 68 -72
73 1 4 -2 6 -8 2 -5 -3 -10 -1 -10 5 0 6 -4 9 -9 6 -5 -4 -11 -3 -13 2 -6 16
-245 122 -319 142 -41 11 -120 24 -175 30 -110 11 -105 11 -221 -1z m827
-1843 c0 -2 -8 -10 -17 -17 -16 -13 -17 -12 -4 4 13 16 21 21 21 13z"/>
<path d="M7000 12476 c0 -3 9 -10 20 -16 11 -6 20 -8 20 -6 0 3 -9 10 -20 16
-11 6 -20 8 -20 6z"/>
<path d="M7055 12443 c24 -23 147 -114 141 -104 -4 6 -33 30 -64 54 -57 43
-97 69 -77 50z"/>
<path d="M7286 12240 c81 -96 172 -264 199 -365 4 -16 9 -25 12 -18 14 39
-144 331 -213 393 l-28 25 30 -35z"/>
<path d="M7266 12127 c3 -10 9 -15 12 -12 3 3 0 11 -7 18 -10 9 -11 8 -5 -6z"/>
<path d="M7286 12087 c3 -10 9 -15 12 -12 3 3 0 11 -7 18 -10 9 -11 8 -5 -6z"/>
<path d="M7361 11854 c0 -11 3 -14 6 -6 3 7 2 16 -1 19 -3 4 -6 -2 -5 -13z"/>
<path d="M7502 11825 c0 -11 3 -29 8 -40 11 -25 11 1 0 35 -6 20 -8 21 -8 5z"/>
<path d="M7372 11810 c0 -14 2 -19 5 -12 2 6 2 18 0 25 -3 6 -5 1 -5 -13z"/>
<path d="M7527 11675 c3 -49 7 -92 9 -94 7 -8 3 94 -6 139 -6 32 -7 18 -3 -45z"/>
<path d="M7384 11640 c0 -52 1 -74 3 -47 2 26 2 68 0 95 -2 26 -3 4 -3 -48z"/>
<path d="M7526 11456 c-10 -136 -54 -281 -122 -403 -19 -35 -33 -63 -30 -63
10 0 75 125 99 191 14 37 32 95 41 129 16 62 33 230 24 230 -3 0 -8 -38 -12
-84z"/>
<path d="M7371 11474 c0 -11 3 -14 6 -6 3 7 2 16 -1 19 -3 4 -6 -2 -5 -13z"/>
<path d="M7353 10968 c-43 -57 -66 -91 -58 -86 12 7 78 98 72 98 -3 0 -9 -6
-14 -12z"/>
<path d="M7229 10813 l-34 -38 38 34 c20 19 37 36 37 38 0 8 -8 0 -41 -34z"/>
<path d="M7149 10743 c-13 -16 -12 -17 4 -4 16 13 21 21 13 21 -2 0 -10 -8
-17 -17z"/>
<path d="M7077 10696 c-59 -41 -73 -55 -29 -30 33 19 91 63 82 63 -3 0 -27
-15 -53 -33z"/>
<path d="M6957 10625 c-27 -13 -68 -32 -93 -41 -24 -9 -43 -19 -40 -21 6 -6
148 54 172 72 27 20 16 18 -39 -10z"/>
<path d="M6100 10581 c24 -14 66 -25 55 -13 -5 5 -23 12 -40 16 -20 4 -25 3
-15 -3z"/>
<path d="M6438 10573 c7 -3 16 -2 19 1 4 3 -2 6 -13 5 -11 0 -14 -3 -6 -6z"/>
<path d="M6187 10562 c-10 -4 31 -6 90 -4 150 4 169 9 38 10 -60 0 -118 -3
-128 -6z"/>
<path d="M6458 10553 c7 -3 16 -2 19 1 4 3 -2 6 -13 5 -11 0 -14 -3 -6 -6z"/>
<path d="M6788 10553 c7 -3 16 -2 19 1 4 3 -2 6 -13 5 -11 0 -14 -3 -6 -6z"/>
<path d="M6208 10545 c-8 -9 -90 -26 -288 -60 -716 -124 -1304 -505 -1696
-1097 -88 -132 -200 -355 -249 -495 -44 -125 -47 -129 -83 -138 -94 -22 -325
-126 -469 -211 -209 -123 -326 -214 -513 -403 -359 -361 -578 -772 -678 -1275
l-28 -139 -31 64 c-18 35 -39 73 -48 84 -8 11 6 -21 32 -72 l47 -92 -24 -93
c-33 -125 -35 -322 -3 -443 12 -44 24 -105 28 -135 9 -80 78 -349 119 -465
211 -603 659 -1120 1214 -1399 151 -76 354 -166 363 -160 5 3 9 1 9 -4 0 -6 7
-13 16 -16 8 -3 12 -2 9 4 -8 13 1 13 60 -6 79 -24 222 -54 321 -68 l91 -13 7
111 c3 61 6 168 6 238 l0 127 -27 4 c-16 2 -2 5 30 6 l57 1 0 -32 c0 -18 5
-40 11 -48 9 -12 10 -12 5 3 -3 10 -6 34 -6 53 l0 35 -107 -2 c-116 -1 -190
13 -368 73 -118 39 -269 126 -392 225 -24 19 -43 31 -43 26 0 -4 38 -35 85
-68 47 -33 85 -61 85 -63 0 -6 -90 48 -190 113 -202 134 -383 309 -526 509
-35 49 -63 91 -61 92 1 2 33 -13 71 -32 38 -19 75 -34 82 -34 8 0 42 -14 77
-31 96 -49 219 -99 228 -93 5 3 9 0 9 -6 0 -7 7 -9 16 -6 9 4 13 2 8 -5 -4 -7
0 -9 13 -5 11 3 46 -3 79 -14 123 -43 357 -94 564 -124 183 -26 300 -36 508
-43 l202 -6 0 -29 0 -28 -107 -1 c-127 -2 -118 -6 20 -11 l97 -4 0 43 c0 38 3
43 23 43 16 0 33 -14 55 -45 28 -41 36 -45 72 -45 l40 0 -2 -51 c-1 -50 1 -52
68 -121 107 -108 318 -270 365 -280 8 -2 16 -5 19 -8 3 -3 16 -11 30 -18 14
-7 40 -22 58 -33 17 -12 32 -19 32 -17 0 3 -24 20 -52 39 -29 18 -78 53 -108
78 -30 24 -44 32 -31 18 14 -15 21 -27 17 -27 -15 0 -161 109 -238 177 -118
105 -142 137 -148 197 -5 51 -5 51 -44 54 -40 4 -85 42 -86 73 0 9 -11 20 -24
23 -14 3 -31 12 -38 19 -7 6 -57 45 -110 85 -296 223 -521 565 -612 932 -65
258 -65 551 -3 820 66 280 237 583 447 791 87 85 263 230 270 220 3 -5 17 4
31 20 14 16 24 31 22 33 -6 6 74 119 116 164 17 18 35 31 39 28 5 -3 42 30 83
72 41 42 58 63 39 47 -34 -29 -34 -28 5 13 37 40 65 57 49 30 -5 -9 -2 -8 9 1
10 8 15 16 12 19 -6 7 25 42 37 42 5 0 6 -5 2 -12 -4 -7 -3 -8 5 -4 6 4 9 11
6 16 -3 5 8 18 24 29 33 24 45 27 35 9 -4 -8 -3 -10 2 -5 5 5 9 14 9 19 0 6 6
13 14 16 9 3 11 0 6 -8 -5 -9 -4 -11 4 -6 6 4 9 11 6 16 -3 5 3 14 14 19 26
14 34 14 25 -1 -4 -7 -3 -8 5 -4 6 4 9 11 6 16 -3 5 8 16 24 25 36 18 44 19
35 3 -4 -8 -3 -10 2 -5 5 5 9 14 9 20 0 13 166 87 272 122 334 107 711 106
1056 -5 105 -34 128 -49 37 -25 -277 74 -685 52 -958 -52 -61 -23 -46 -26 19
-4 284 100 660 118 938 46 33 -8 67 -12 77 -8 11 4 15 3 11 -4 -5 -7 6 -14 25
-18 58 -13 180 -74 283 -143 118 -79 345 -300 415 -404 33 -50 51 -68 68 -68
22 0 22 1 22 158 0 198 -25 466 -65 697 -30 175 -83 381 -146 568 -28 81 -47
153 -43 160 4 6 3 8 -1 4 -5 -4 -22 20 -37 54 -30 67 -34 84 -16 73 7 -4 8 -3
4 5 -4 6 -11 9 -15 7 -4 -3 -24 29 -44 70 -32 64 -34 73 -17 64 11 -6 18 -14
16 -18 -3 -5 0 -14 6 -22 8 -12 9 -11 4 3 -4 12 -2 17 6 15 7 -3 13 -10 13
-15 0 -6 4 -15 9 -20 5 -5 6 -3 2 5 -4 6 -3 12 3 12 10 0 26 -19 26 -32 0 -3
4 -10 9 -15 5 -5 6 -3 2 5 -11 18 9 15 25 -5 10 -11 10 -14 2 -9 -19 11 -16 1
4 -15 11 -10 14 -10 9 -1 -10 17 9 15 24 -3 7 -8 18 -15 25 -15 19 0 235 -217
313 -315 94 -120 203 -300 263 -438 l49 -112 0 73 c0 64 2 72 19 72 43 0 270
-44 362 -69 54 -16 99 -24 99 -19 0 4 -19 57 -41 116 -23 59 -42 117 -43 129
0 11 -4 20 -7 18 -9 -6 -90 166 -83 177 5 7 2 8 -6 3 -10 -6 -12 -4 -7 9 4 9
3 15 -2 12 -5 -4 -21 14 -35 38 -29 49 -32 61 -14 50 7 -4 8 -3 4 5 -4 6 -11
9 -15 6 -7 -4 -101 126 -101 140 0 4 6 3 13 -1 8 -5 8 -2 -2 9 -16 20 -26 23
-15 5 5 -9 2 -9 -9 1 -19 15 -23 36 -5 25 7 -5 8 -3 4 5 -5 7 -11 10 -14 7 -7
-7 -32 13 -32 26 0 5 6 6 13 2 8 -5 7 -2 -2 9 -8 10 -16 15 -19 12 -7 -6 -32
15 -32 27 0 5 6 6 13 2 6 -4 3 2 -7 14 -11 12 -21 20 -24 17 -7 -7 -42 25 -42
38 0 5 8 3 18 -4 9 -7 6 -1 -7 14 -27 30 -41 37 -20 10 11 -15 10 -15 -8 1
-13 10 -20 24 -16 30 3 6 3 8 -2 4 -4 -5 -49 32 -99 80 -106 101 -212 189
-311 257 -90 61 -94 66 -20 25 33 -18 56 -28 50 -23 -20 21 -129 77 -121 62 4
-7 0 -5 -8 5 -9 11 -16 16 -16 10 0 -5 -4 -4 -8 2 -9 16 -259 135 -387 185
-138 55 -314 105 -453 129 -144 26 -182 34 -252 55 -58 17 -300 33 -312 20z
m-1004 -887 c-46 -91 -102 -222 -108 -251 -3 -12 -19 -62 -36 -112 -130 -377
-198 -773 -216 -1246 l-7 -186 -191 -7 c-467 -17 -805 -76 -1226 -211 -198
-64 -242 -81 -361 -141 -92 -46 -92 -46 -74 -18 206 325 529 598 893 758 l83
36 174 0 174 0 7 49 6 49 49 6 48 7 3 182 3 182 34 72 c19 41 38 70 44 66 6
-3 7 -1 3 5 -9 14 62 155 74 147 5 -3 12 0 16 6 4 8 3 9 -4 5 -15 -9 -15 -1
-1 25 5 11 14 17 19 14 5 -3 12 0 16 6 5 8 3 9 -6 4 -8 -5 -11 -3 -8 6 3 8 10
14 16 14 5 0 14 4 19 9 5 5 2 6 -6 1 -9 -5 -12 -3 -9 6 3 8 10 13 16 12 6 -2
21 12 32 30 l22 32 -26 -30 c-14 -16 -26 -26 -26 -22 0 16 41 67 50 62 4 -3
14 3 21 13 13 15 12 16 -3 3 -11 -8 -18 -9 -18 -3 0 12 19 26 35 27 6 0 9 7 7
16 -1 8 10 26 25 40 15 13 21 16 14 7 -22 -30 -7 -20 25 14 16 18 19 24 7 14
-13 -11 -23 -15 -23 -10 0 15 185 195 204 198 9 1 17 6 17 12 1 13 20 34 31
34 5 0 6 -6 2 -12 -5 -9 -2 -8 9 1 10 8 15 16 12 19 -6 7 15 32 27 32 5 0 6
-4 3 -10 -10 -16 1 -11 16 7 12 15 12 16 -1 8 -13 -8 -13 -7 -1 8 15 19 36 23
25 5 -4 -7 -3 -8 5 -4 6 4 9 11 6 16 -3 4 6 15 20 24 30 20 36 20 29 1 -4 -8
-10 -13 -14 -10 -5 3 -12 0 -16 -6 -4 -8 -3 -9 4 -5 7 4 12 1 12 -6 1 -16 21
17 24 39 2 12 23 32 34 33 1 0 -14 -33 -34 -72z m-104 -1553 c-24 -25 -46 -45
-48 -45 -2 0 13 20 34 45 20 25 41 45 47 45 6 0 -9 -20 -33 -45z m370 -3711
c0 -2 -9 0 -20 6 -11 6 -20 13 -20 16 0 2 9 0 20 -6 11 -6 20 -13 20 -16z"/>
<path d="M5106 9495 c-9 -26 -7 -32 5 -12 6 10 9 21 6 23 -2 3 -7 -2 -11 -11z"/>
<path d="M4879 9433 l-34 -38 38 34 c20 19 37 36 37 38 0 8 -8 0 -41 -34z"/>
<path d="M5004 9323 c-38 -42 -64 -74 -58 -70 15 9 138 147 131 147 -2 0 -35
-35 -73 -77z"/>
<path d="M4879 9177 c-55 -75 -121 -173 -139 -207 -21 -40 -5 -20 51 65 28 44
74 108 100 143 27 34 46 62 42 62 -5 -1 -29 -29 -54 -63z"/>
<path d="M4550 8990 c-6 -11 -8 -20 -6 -20 3 0 10 9 16 20 6 11 8 20 6 20 -3
0 -10 -9 -16 -20z"/>
<path d="M4695 8890 c-14 -27 -23 -50 -20 -50 2 0 16 23 30 50 14 28 23 50 20
50 -2 0 -16 -22 -30 -50z"/>
<path d="M4466 8813 c-6 -14 -5 -15 5 -6 7 7 10 15 7 18 -3 3 -9 -2 -12 -12z"/>
<path d="M4642 8785 c-30 -62 -27 -71 4 -12 14 27 24 51 22 53 -3 2 -14 -17
-26 -41z"/>
<path d="M4596 8680 c-12 -31 -16 -76 -16 -200 l0 -160 -24 0 c-14 0 -36 -4
-50 -10 -23 -8 -26 -14 -24 -57 l1 -48 4 43 c4 46 25 62 79 62 l24 0 0 165 c0
125 4 174 15 202 8 20 14 38 11 40 -2 2 -11 -14 -20 -37z"/>
<path d="M4332 8330 c0 -14 2 -19 5 -12 2 6 2 18 0 25 -3 6 -5 1 -5 -13z"/>
<path d="M4068 8263 c46 -2 118 -2 160 0 42 1 5 3 -83 3 -88 0 -123 -2 -77 -3z"/>
<path d="M4103 8196 c-28 -12 -55 -25 -60 -30 -4 -4 17 3 47 16 48 20 77 24
220 28 l165 6 -160 1 c-144 1 -165 -1 -212 -21z"/>
<path d="M3915 8107 c-116 -62 -180 -101 -191 -118 -4 -7 15 3 42 22 27 18 99
59 159 91 61 32 106 58 100 58 -5 0 -55 -24 -110 -53z"/>
<path d="M3642 7935 c-32 -24 -65 -52 -73 -62 -8 -9 18 7 56 37 84 65 91 70
83 70 -3 0 -33 -20 -66 -45z"/>
<path d="M3463 7782 c-39 -37 -86 -85 -105 -108 -19 -24 -12 -19 18 14 29 30
78 78 110 108 33 29 57 53 54 53 -3 0 -37 -30 -77 -67z"/>
<path d="M6690 10534 l-55 -13 49 5 c27 3 58 9 70 14 31 13 -1 10 -64 -6z"/>
<path d="M6608 10513 c7 -3 16 -2 19 1 4 3 -2 6 -13 5 -11 0 -14 -3 -6 -6z"/>
<path d="M7780 10067 c0 -3 22 -19 50 -37 27 -18 48 -36 45 -40 -3 -4 3 -7 13
-6 9 0 16 -4 15 -10 -1 -7 8 -20 20 -30 l22 -19 -19 23 c-20 23 -9 31 12 10 7
-7 12 -9 12 -5 0 3 -33 28 -72 55 -88 58 -98 65 -98 59z"/>
<path d="M7967 9939 c7 -8 34 -30 60 -48 36 -24 40 -26 18 -6 -44 38 -92 72
-78 54z"/>
<path d="M7990 9885 c19 -19 36 -35 39 -35 3 0 -10 16 -29 35 -19 19 -36 35
-39 35 -3 0 10 -16 29 -35z"/>
<path d="M8206 9734 c67 -65 136 -136 153 -158 18 -21 34 -36 36 -34 7 6 -160
181 -236 247 -49 43 -34 25 47 -55z"/>
<path d="M7595 9540 c8 -16 20 -42 26 -56 5 -15 12 -24 15 -21 6 5 -43 107
-51 107 -3 0 1 -13 10 -30z"/>
<path d="M8430 9490 c17 -22 37 -43 43 -47 6 -4 -6 14 -27 40 -21 26 -40 47
-43 47 -3 0 10 -18 27 -40z"/>
<path d="M7506 9487 c3 -10 9 -15 12 -12 3 3 0 11 -7 18 -10 9 -11 8 -5 -6z"/>
<path d="M7643 9438 c3 -7 20 -50 38 -96 18 -45 34 -80 36 -78 5 5 -67 186
-74 186 -3 0 -3 -6 0 -12z"/>
<path d="M8511 9388 c18 -27 34 -48 36 -48 7 0 -16 35 -42 65 -20 23 -19 18 6
-17z"/>
<path d="M7540 9405 c0 -5 5 -17 10 -25 5 -8 10 -10 10 -5 0 6 -5 17 -10 25
-5 8 -10 11 -10 5z"/>
<path d="M8565 9306 c10 -14 19 -26 22 -26 7 0 -17 39 -28 46 -6 3 -3 -5 6
-20z"/>
<path d="M8470 9300 c6 -11 13 -20 16 -20 2 0 0 9 -6 20 -6 11 -13 20 -16 20
-2 0 0 -9 6 -20z"/>
<path d="M8620 9220 c17 -30 58 -109 91 -174 33 -66 62 -122 65 -125 24 -25
-135 290 -167 329 -11 14 -6 0 11 -30z"/>
<path d="M7720 9247 c0 -12 32 -107 36 -107 3 0 1 12 -2 28 -8 32 -33 91 -34
79z"/>
<path d="M8530 9191 c0 -6 4 -13 10 -16 6 -3 7 1 4 9 -7 18 -14 21 -14 7z"/>
<path d="M7620 9165 c0 -5 5 -17 10 -25 5 -8 10 -10 10 -5 0 6 -5 17 -10 25
-5 8 -10 11 -10 5z"/>
<path d="M7760 9126 c0 -8 49 -183 68 -246 l11 -35 -5 35 c-3 19 -19 82 -36
140 -27 97 -38 126 -38 106z"/>
<path d="M7671 8984 c0 -11 3 -14 6 -6 3 7 2 16 -1 19 -3 4 -6 -2 -5 -13z"/>
<path d="M8660 8905 c0 -5 5 -17 10 -25 5 -8 10 -10 10 -5 0 6 -5 17 -10 25
-5 8 -10 11 -10 5z"/>
<path d="M8786 8895 c3 -11 9 -30 11 -43 3 -12 10 -25 15 -28 13 -8 1 31 -19
66 -9 15 -12 17 -7 5z"/>
<path d="M7702 8850 c0 -8 4 -26 8 -40 6 -20 8 -21 8 -5 0 11 -3 29 -8 40 -5
12 -8 14 -8 5z"/>
<path d="M7841 8819 c0 -13 4 -33 9 -44 7 -14 8 -8 3 20 -7 46 -13 59 -12 24z"/>
<path d="M8821 8803 c-1 -7 3 -22 8 -35 5 -13 12 -32 15 -42 4 -10 9 -17 12
-14 2 3 -4 27 -15 54 -11 27 -20 44 -20 37z"/>
<path d="M8700 8780 c0 -4 22 -15 48 -23 26 -9 57 -19 68 -23 10 -4 16 -4 13
0 -11 12 -129 55 -129 46z"/>
<path d="M7721 8744 c0 -11 3 -14 6 -6 3 7 2 16 -1 19 -3 4 -6 -2 -5 -13z"/>
<path d="M7862 8725 c0 -16 3 -39 8 -50 l9 -20 -1 20 c0 11 -4 34 -8 50 l-8
30 0 -30z"/>
<path d="M7731 8704 c0 -11 3 -14 6 -6 3 7 2 16 -1 19 -3 4 -6 -2 -5 -13z"/>
<path d="M7882 8620 c0 -19 4 -46 8 -60 6 -20 8 -21 8 -5 1 11 -3 38 -7 60
l-9 40 0 -35z"/>
<path d="M7741 8624 c0 -11 3 -14 6 -6 3 7 2 16 -1 19 -3 4 -6 -2 -5 -13z"/>
<path d="M6178 8603 c12 -2 30 -2 40 0 9 3 -1 5 -23 4 -22 0 -30 -2 -17 -4z"/>
<path d="M6408 8603 c12 -2 30 -2 40 0 9 3 -1 5 -23 4 -22 0 -30 -2 -17 -4z"/>
<path d="M6068 8593 c7 -3 16 -2 19 1 4 3 -2 6 -13 5 -11 0 -14 -3 -6 -6z"/>
<path d="M6538 8593 c7 -3 16 -2 19 1 4 3 -2 6 -13 5 -11 0 -14 -3 -6 -6z"/>
<path d="M6018 8583 c7 -3 16 -2 19 1 4 3 -2 6 -13 5 -11 0 -14 -3 -6 -6z"/>
<path d="M6588 8583 c7 -3 16 -2 19 1 4 3 -2 6 -13 5 -11 0 -14 -3 -6 -6z"/>
<path d="M7751 8574 c0 -11 3 -14 6 -6 3 7 2 16 -1 19 -3 4 -6 -2 -5 -13z"/>
<path d="M5918 8563 c7 -3 16 -2 19 1 4 3 -2 6 -13 5 -11 0 -14 -3 -6 -6z"/>
<path d="M6688 8563 c7 -3 16 -2 19 1 4 3 -2 6 -13 5 -11 0 -14 -3 -6 -6z"/>
<path d="M9230 8536 c0 -3 12 -12 28 -20 46 -24 212 -145 302 -221 449 -379
771 -953 850 -1515 6 -47 21 -121 33 -165 31 -117 30 -329 -1 -438 -12 -42
-22 -90 -22 -107 0 -82 -74 -380 -137 -554 -77 -210 -247 -511 -385 -679 -311
-380 -714 -665 -1138 -806 l-65 -22 -29 -82 c-167 -485 -530 -952 -969 -1245
-294 -197 -669 -342 -1012 -392 -44 -6 -118 -21 -165 -32 -119 -29 -303 -29
-420 -1 -116 29 -287 57 -334 56 -28 -1 -35 2 -25 9 10 6 3 7 -21 3 -28 -5
-32 -4 -20 5 13 10 12 11 -4 6 -10 -4 -25 -1 -32 5 -8 6 -14 9 -14 6 0 -3 -34
8 -76 24 -42 16 -78 28 -81 26 -4 -4 175 -73 261 -101 61 -20 84 -20 36 0 -24
10 -27 13 -10 10 14 -3 70 -12 125 -21 55 -9 141 -26 190 -38 126 -31 305 -31
430 0 50 13 149 32 220 44 378 62 757 227 1085 472 116 88 363 332 452 447
162 210 307 469 382 681 l38 106 101 37 c831 305 1462 1057 1607 1914 12 70
31 170 43 222 30 131 30 330 0 445 -12 44 -26 118 -33 165 -43 324 -187 693
-389 1000 -120 183 -327 413 -488 544 -40 32 -71 62 -68 66 3 5 0 12 -6 16 -8
5 -9 3 -4 -6 5 -8 3 -11 -6 -8 -8 3 -14 10 -14 16 0 14 -76 62 -87 56 -5 -3
-8 -1 -8 4 0 5 -27 24 -60 41 -33 18 -60 30 -60 27z m205 -124 c-3 -3 -11 0
-18 7 -9 10 -8 11 6 5 10 -3 15 -9 12 -12z"/>
<path d="M7901 8499 c0 -19 4 -52 9 -74 7 -31 7 -24 3 30 -6 74 -13 101 -12
44z"/>
<path d="M7762 8480 c0 -14 2 -19 5 -12 2 6 2 18 0 25 -3 6 -5 1 -5 -13z"/>
<path d="M5580 8450 c-9 -6 -10 -10 -3 -10 6 0 15 5 18 10 8 12 4 12 -15 0z"/>
<path d="M5840 8433 c-38 -14 -193 -94 -246 -128 -79 -50 -224 -158 -224 -168
0 -4 26 14 58 40 89 73 211 149 334 208 98 48 129 66 78 48z"/>
<path d="M7772 8415 c0 -16 2 -22 5 -12 2 9 2 23 0 30 -3 6 -5 -1 -5 -18z"/>
<path d="M7921 8334 c1 -27 5 -74 9 -104 6 -40 7 -27 3 45 -6 104 -14 144 -12
59z"/>
<path d="M8304 8365 c3 -9 6 -30 6 -46 l0 -29 90 0 90 0 2 -42 1 -43 4 38 4
37 64 0 c48 0 80 -7 132 -29 l68 -30 -130 -3 -130 -4 155 -1 155 -2 -105 45
c-100 43 -291 104 -374 118 -33 6 -38 5 -32 -9z"/>
<path d="M9520 8366 c0 -3 20 -19 45 -36 25 -17 45 -29 45 -26 0 3 -20 19 -45
36 -25 17 -45 29 -45 26z"/>
<path d="M7783 8275 c0 -22 2 -30 4 -17 2 12 2 30 0 40 -3 9 -5 -1 -4 -23z"/>
<path d="M9623 8293 c9 -14 87 -77 87 -70 0 3 -21 22 -47 43 -26 21 -44 33
-40 27z"/>
<path d="M8538 8263 c17 -2 47 -2 65 0 17 2 3 4 -33 4 -36 0 -50 -2 -32 -4z"/>
<path d="M9721 8213 c0 -5 17 -21 37 -37 l37 -30 -34 37 c-36 38 -42 42 -40
30z"/>
<path d="M7793 8150 c0 -36 2 -50 4 -32 2 17 2 47 0 65 -2 17 -4 3 -4 -33z"/>
<path d="M7941 8017 l-1 -148 -36 7 c-27 5 -35 4 -30 -5 4 -6 24 -11 44 -11
l38 0 -4 133 c-4 187 -9 197 -11 24z"/>
<path d="M9880 8065 c47 -47 87 -85 90 -85 2 0 -33 38 -80 85 -47 47 -87 85
-90 85 -2 0 33 -38 80 -85z"/>
<path d="M5280 8055 c-24 -25 -42 -45 -39 -45 3 0 25 20 49 45 24 25 42 45 39
45 -3 0 -25 -20 -49 -45z"/>
<path d="M5028 7933 c-2 -54 -1 -111 3 -128 4 -16 7 27 8 98 1 70 -1 127 -3
127 -2 0 -6 -44 -8 -97z"/>
<path d="M5185 7956 c-6 -8 -36 -49 -69 -91 -32 -42 -56 -78 -53 -81 2 -2 16
13 30 35 14 21 46 64 71 95 26 31 43 56 39 56 -5 0 -13 -6 -18 -14z"/>
<path d="M9992 7941 c13 -16 30 -32 38 -36 8 -3 -1 10 -19 29 -42 44 -51 46
-19 7z"/>
<path d="M7790 7953 c0 -5 10 -18 23 -29 l22 -19 -20 25 c-11 14 -21 27 -22
29 -2 2 -3 0 -3 -6z"/>
<path d="M7830 7896 c0 -2 8 -10 18 -17 15 -13 16 -12 3 4 -13 16 -21 21 -21
13z"/>
<path d="M10122 7780 c119 -166 120 -166 112 -150 -13 27 -131 194 -163 230
-17 19 6 -17 51 -80z"/>
<path d="M7765 7810 c3 -5 8 -10 11 -10 2 0 4 5 4 10 0 6 -5 10 -11 10 -5 0
-7 -4 -4 -10z"/>
<path d="M4853 7763 c31 -2 83 -2 115 0 31 2 5 3 -58 3 -63 0 -89 -1 -57 -3z"/>
<path d="M4940 7689 c-36 -28 -76 -62 -90 -76 -14 -14 1 -4 34 21 32 26 76 59
97 73 22 14 39 27 39 29 0 11 -21 -2 -80 -47z"/>
<path d="M10265 7565 c15 -27 32 -54 38 -60 6 -5 -2 13 -18 40 -15 28 -32 55
-38 60 -6 6 2 -12 18 -40z"/>
<path d="M4740 7513 l-55 -58 58 55 c53 50 62 60 54 60 -1 0 -27 -26 -57 -57z"/>
<path d="M10320 7469 c0 -13 32 -70 37 -65 3 3 -4 20 -16 38 -11 18 -21 30
-21 27z"/>
<path d="M936 7438 c-121 -13 -220 -44 -341 -103 -218 -107 -358 -243 -471
-460 -172 -329 -154 -741 44 -1050 81 -125 205 -247 332 -327 74 -47 280 -139
293 -131 6 3 7 1 4 -4 -4 -6 10 -18 33 -27 55 -22 64 -19 15 5 -24 12 -30 17
-15 14 92 -21 229 -28 329 -17 485 51 861 404 945 887 47 271 -25 567 -194
795 -47 64 -170 188 -220 223 -14 10 -1 6 28 -8 28 -14 52 -23 52 -20 0 4 -39
25 -87 47 -49 22 -124 58 -168 79 -107 51 -228 84 -353 98 -114 12 -114 12
-226 -1z"/>
<path d="M4615 7377 c-88 -113 -202 -294 -192 -303 2 -2 17 20 32 48 38 71
115 185 170 253 25 30 42 55 38 55 -5 -1 -26 -24 -48 -53z"/>
<path d="M10360 7381 c0 -6 4 -13 10 -16 6 -3 7 1 4 9 -7 18 -14 21 -14 7z"/>
<path d="M10381 7349 c-1 -4 6 -24 15 -45 9 -22 20 -50 25 -63 5 -13 12 -22
14 -19 3 3 -8 34 -24 69 -16 35 -30 61 -30 58z"/>
<path d="M12170 7262 c61 -42 160 -134 211 -198 103 -128 166 -250 209 -409
32 -114 39 -338 15 -455 -76 -377 -323 -670 -677 -804 -124 -46 -204 -59 -373
-62 -198 -2 -195 -2 -174 -14 33 -19 174 -51 247 -55 l77 -4 -75 9 c-70 9
-179 33 -221 48 -10 4 57 7 149 8 148 0 178 3 267 27 408 110 710 433 791 845
20 105 18 297 -5 407 -40 195 -133 373 -271 519 -47 49 -76 87 -65 83 41 -15
-27 30 -79 51 -39 16 -45 17 -26 4z m90 -48 c0 -2 -9 0 -20 6 -11 6 -20 13
-20 16 0 2 9 0 20 -6 11 -6 20 -13 20 -16z"/>
<path d="M1785 7204 c6 -6 35 -28 65 -49 30 -22 89 -71 130 -109 68 -64 70
-65 20 -12 -54 57 -137 125 -195 161 -16 10 -25 14 -20 9z"/>
<path d="M10442 7200 c7 -33 71 -220 75 -217 4 5 -42 154 -63 199 -8 18 -13
26 -12 18z"/>
<path d="M12300 7197 c0 -2 21 -19 48 -37 26 -19 39 -25 30 -14 -16 18 -78 59
-78 51z"/>
<path d="M12400 7126 c0 -2 8 -10 18 -17 15 -13 16 -12 3 4 -13 16 -21 21 -21
13z"/>
<path d="M12485 7050 c10 -11 20 -20 23 -20 3 0 -3 9 -13 20 -10 11 -20 20
-23 20 -3 0 3 -9 13 -20z"/>
<path d="M4389 7013 c-30 -66 -89 -235 -89 -253 1 -8 16 31 35 88 19 56 42
116 50 132 20 39 36 80 30 80 -2 0 -14 -21 -26 -47z"/>
<path d="M12560 6960 c17 -22 34 -40 37 -40 2 0 -10 18 -27 40 -17 22 -34 40
-37 40 -2 0 10 -18 27 -40z"/>
<path d="M2068 6942 c13 -17 28 -35 34 -39 7 -3 2 8 -10 25 -13 17 -28 35 -34
39 -7 3 -2 -8 10 -25z"/>
<path d="M10522 6955 c0 -11 3 -29 8 -40 11 -25 11 1 0 35 -6 20 -8 21 -8 5z"/>
<path d="M12625 6870 c15 -25 41 -76 59 -115 18 -38 38 -81 44 -95 l12 -25 -5
25 c-8 35 -91 200 -116 230 -14 17 -12 10 6 -20z"/>
<path d="M10541 6869 c0 -13 4 -33 9 -44 7 -14 8 -8 3 20 -7 46 -13 59 -12 24z"/>
<path d="M10538 6703 c-15 -54 -32 -125 -38 -157 -20 -119 -9 -290 29 -436 15
-62 60 -186 61 -168 0 9 -11 47 -24 85 -83 239 -88 445 -15 686 11 38 19 73
17 78 -2 5 -15 -35 -30 -88z"/>
<path d="M4285 6710 c-4 -17 -5 -34 -2 -36 2 -3 7 10 11 27 8 42 0 50 -9 9z"/>
<path d="M4270 6654 c0 -5 -7 -49 -15 -99 -15 -95 -20 -379 -6 -450 4 -22 5
41 3 140 -3 131 0 211 12 294 9 63 14 117 11 119 -3 3 -5 1 -5 -4z"/>
<path d="M12744 6610 c12 -74 40 -190 43 -186 6 6 -24 159 -37 188 -10 23 -10
22 -6 -2z"/>
<path d="M12782 6180 c0 -14 2 -19 5 -12 2 6 2 18 0 25 -3 6 -5 1 -5 -13z"/>
<path d="M12765 6105 c-3 -25 -15 -73 -26 -106 -11 -34 -18 -63 -16 -65 2 -3
14 26 25 63 23 72 38 153 29 153 -2 0 -8 -20 -12 -45z"/>
<path d="M4261 6029 c0 -19 5 -43 10 -54 6 -13 7 -4 3 30 -8 60 -14 72 -13 24z"/>
<path d="M4281 5933 c-1 -23 63 -226 93 -295 25 -58 29 -45 5 15 -36 90 -50
129 -74 217 -13 47 -24 75 -24 63z"/>
<path d="M2201 5904 c0 -11 3 -14 6 -6 3 7 2 16 -1 19 -3 4 -6 -2 -5 -13z"/>
<path d="M10565 5873 c-4 -27 -16 -85 -27 -131 -11 -46 -18 -85 -15 -88 4 -5
43 158 53 224 4 23 4 42 1 42 -3 0 -9 -21 -12 -47z"/>
<path d="M12676 5842 c-21 -42 -58 -106 -83 -142 -39 -57 -41 -60 -10 -25 35
39 143 232 135 240 -2 3 -21 -30 -42 -73z"/>
<path d="M2185 5869 c-4 -6 -5 -12 -2 -15 2 -3 7 2 10 11 7 17 1 20 -8 4z"/>
<path d="M2156 5810 c-8 -17 -24 -46 -36 -65 -12 -19 -19 -35 -17 -35 6 0 61
88 70 113 10 28 0 20 -17 -13z"/>
<path d="M2054 5653 c-21 -26 -33 -44 -27 -40 14 9 77 87 70 87 -3 0 -22 -21
-43 -47z"/>
<path d="M10495 5578 c-11 -35 -36 -108 -57 -163 -20 -54 -35 -101 -34 -103 5
-4 57 131 91 236 15 46 25 85 23 88 -3 2 -13 -24 -23 -58z"/>
<path d="M12494 5582 c-27 -27 -55 -57 -63 -68 -8 -10 15 10 52 46 37 35 67
66 67 67 0 7 -10 0 -56 -45z"/>
<path d="M4400 5586 c0 -13 72 -146 82 -152 5 -4 -9 29 -33 72 -47 87 -49 91
-49 80z"/>
<path d="M1979 5563 c-13 -16 -12 -17 4 -4 9 7 17 15 17 17 0 8 -8 3 -21 -13z"/>
<path d="M1880 5484 c-64 -50 -73 -63 -17 -24 42 30 77 61 66 59 -2 0 -24 -16
-49 -35z"/>
<path d="M12389 5483 c-13 -16 -12 -17 4 -4 9 7 17 15 17 17 0 8 -8 3 -21 -13z"/>
<path d="M12332 5446 c-46 -33 -53 -43 -14 -20 19 10 38 25 44 32 15 17 8 14
-30 -12z"/>
<path d="M1740 5392 c-36 -20 -114 -54 -175 -75 -60 -20 -94 -35 -75 -31 60
11 186 60 254 98 36 20 66 39 66 41 0 7 0 7 -70 -33z"/>
<path d="M4507 5392 c37 -62 128 -182 137 -182 6 0 -2 12 -16 28 -14 15 -47
59 -73 97 -54 78 -79 108 -48 57z"/>
<path d="M12254 5394 c-18 -14 -18 -15 4 -4 12 6 22 13 22 15 0 8 -5 6 -26
-11z"/>
<path d="M12205 5370 c-3 -6 1 -7 9 -4 18 7 21 14 7 14 -6 0 -13 -4 -16 -10z"/>
<path d="M11308 5350 c28 -13 49 -17 59 -11 11 6 4 10 -25 15 -22 3 -49 8 -59
11 -10 3 2 -4 25 -15z"/>
<path d="M12135 5339 c-22 -10 -29 -16 -15 -13 28 7 80 33 65 33 -5 0 -28 -9
-50 -20z"/>
<path d="M905 5310 c27 -12 43 -12 25 0 -8 5 -22 9 -30 9 -10 0 -8 -3 5 -9z"/>
<path d="M9560 5279 c-206 -105 -611 -238 -848 -278 -31 -6 -84 -15 -117 -21
-106 -18 -276 -38 -431 -51 -125 -10 -155 -15 -175 -32 l-24 -19 25 14 c16 10
80 20 175 27 499 39 911 136 1293 302 75 33 143 63 151 66 12 5 -54 -91 -118
-173 -9 -11 0 -3 20 17 41 43 144 190 132 188 -4 -1 -42 -19 -83 -40z"/>
<path d="M12055 5310 c-13 -6 -15 -9 -5 -9 8 0 22 4 30 9 18 12 2 12 -25 0z"/>
<path d="M970 5290 c34 -11 60 -11 35 0 -11 5 -29 8 -40 8 -16 0 -15 -2 5 -8z"/>
<path d="M10347 5208 c-25 -51 -44 -95 -42 -96 4 -4 70 123 85 164 19 50 1 21
-43 -68z"/>
<path d="M11975 5290 c-25 -11 1 -11 35 0 20 6 21 8 5 8 -11 0 -29 -3 -40 -8z"/>
<path d="M1070 5270 c46 -9 127 -13 119 -6 -2 2 -40 6 -84 9 -60 4 -69 3 -35
-3z"/>
<path d="M1330 5270 c-55 -7 -55 -7 -10 -8 25 0 65 3 90 7 40 8 41 8 10 8 -19
0 -60 -3 -90 -7z"/>
<path d="M11835 5270 c-48 -7 -48 -7 -10 -8 22 0 60 3 85 7 40 8 41 8 10 8
-19 0 -57 -3 -85 -7z"/>
<path d="M1228 5253 c6 -2 18 -2 25 0 6 3 1 5 -13 5 -14 0 -19 -2 -12 -5z"/>
<path d="M11728 5253 c6 -2 18 -2 25 0 6 3 1 5 -13 5 -14 0 -19 -2 -12 -5z"/>
<path d="M3142 5222 c8 -22 134 -192 141 -192 5 0 -7 19 -26 43 -19 23 -51 68
-72 100 -34 51 -53 72 -43 49z"/>
<path d="M4740 5105 c52 -52 97 -95 100 -95 2 0 -38 43 -90 95 -52 52 -97 95
-100 95 -2 0 38 -43 90 -95z"/>
<path d="M3490 5096 c0 -7 293 -101 340 -110 45 -8 29 -2 -163 58 -81 26 -154
49 -162 52 -8 4 -15 4 -15 0z"/>
<path d="M9345 5055 c-55 -19 -129 -43 -165 -54 -36 -11 -49 -18 -30 -14 43 7
310 92 310 98 0 8 -10 5 -115 -30z"/>
<path d="M10268 5058 c-22 -34 -42 -74 -31 -63 14 15 55 85 50 85 -3 0 -11
-10 -19 -22z"/>
<path d="M3327 4975 c23 -27 74 -81 115 -120 61 -59 58 -55 -22 30 -130 138
-139 147 -93 90z"/>
<path d="M4850 5000 c0 -5 5 -10 10 -10 6 0 9 -4 8 -9 -2 -5 2 -10 7 -11 6 -2
39 -23 75 -47 36 -24 52 -34 36 -21 -16 13 -53 42 -83 66 -29 23 -53 38 -53
32z"/>
<path d="M3890 4970 c34 -11 60 -11 35 0 -11 5 -29 8 -40 8 -16 0 -15 -2 5 -8z"/>
<path d="M9055 4970 c-25 -11 1 -11 35 0 20 6 21 8 5 8 -11 0 -29 -3 -40 -8z"/>
<path d="M10173 4908 c-28 -40 -65 -93 -83 -118 -24 -33 -25 -37 -5 -15 41 47
151 205 143 205 -2 0 -27 -33 -55 -72z"/>
<path d="M4050 4935 c58 -13 128 -26 155 -29 28 -3 -13 8 -90 24 -77 16 -147
29 -155 29 -8 -1 32 -12 90 -24z"/>
<path d="M8905 4940 c-44 -10 -135 -26 -202 -36 -68 -10 -121 -19 -118 -22 7
-7 229 27 345 53 58 12 94 23 80 23 -14 0 -61 -8 -105 -18z"/>
<path d="M4336 4885 c44 -7 123 -15 175 -18 93 -6 93 -6 19 3 -41 5 -109 14
-150 20 -105 14 -142 10 -44 -5z"/>
<path d="M5030 4881 c0 -10 39 -46 43 -40 2 2 -7 14 -20 26 -13 12 -23 19 -23
14z"/>
<path d="M7929 4863 l-24 -28 28 24 c15 14 27 26 27 28 0 8 -8 1 -31 -24z"/>
<path d="M8420 4870 l-45 -7 40 0 c22 -1 67 3 100 7 l60 7 -55 0 c-30 0 -75
-3 -100 -7z"/>
<path d="M7950 4846 c-6 -6 -10 -94 -10 -205 0 -107 2 -192 4 -190 2 2 6 91 9
196 l6 192 198 6 c109 4 200 9 203 12 9 10 -401 -2 -410 -11z"/>
<path d="M5097 4777 c57 -79 80 -107 89 -107 4 0 -4 12 -17 28 -14 15 -42 51
-63 80 -21 28 -40 52 -42 52 -3 0 12 -24 33 -53z"/>
<path d="M7881 4787 c-16 -23 -44 -61 -63 -84 -34 -40 -35 -42 -47 -189 -42
-513 -153 -962 -337 -1351 l-52 -113 58 40 c76 51 196 149 237 192 21 22 43
66 67 137 20 58 35 108 34 113 -2 4 -21 -44 -42 -107 -38 -112 -40 -116 -100
-168 -65 -57 -209 -167 -218 -167 -3 0 20 57 52 128 160 352 267 786 306 1244
l17 193 42 55 c59 78 87 120 81 120 -3 0 -18 -19 -35 -43z"/>
<path d="M3540 4765 c13 -14 26 -25 28 -25 3 0 -5 11 -18 25 -13 14 -26 25
-28 25 -3 0 5 -11 18 -25z"/>
<path d="M10016 4702 l-30 -37 37 34 c38 36 42 42 30 40 -5 0 -21 -17 -37 -37z"/>
<path d="M5234 4610 c25 -27 70 -71 99 -97 28 -26 9 -4 -43 50 -100 102 -135
132 -56 47z"/>
<path d="M9945 4618 l-40 -43 43 40 c39 36 47 45 39 45 -2 0 -21 -19 -42 -42z"/>
<path d="M9770 4448 c-63 -60 -66 -63 -15 -20 56 47 103 93 94 92 -2 -1 -38
-33 -79 -72z"/>
<path d="M7925 4347 c-4 -46 -5 -92 -3 -103 2 -10 8 25 12 79 4 55 5 101 3
104 -3 2 -8 -33 -12 -80z"/>
<path d="M9655 4354 c-16 -13 -77 -57 -135 -96 -99 -67 -145 -102 -110 -83 82
44 305 209 278 205 -2 -1 -16 -12 -33 -26z"/>
<path d="M4523 4303 c9 -2 25 -2 35 0 9 3 1 5 -18 5 -19 0 -27 -2 -17 -5z"/>
<path d="M4582 4138 l-2 -167 41 -93 c22 -51 59 -127 81 -168 59 -108 204
-319 221 -320 4 0 -15 28 -41 63 -99 127 -177 257 -249 417 l-38 85 -5 175 -6
175 -2 -167z"/>
<path d="M7905 4163 c-3 -32 -10 -80 -16 -106 -5 -26 -9 -58 -8 -70 1 -28 24
89 34 171 4 34 5 62 2 62 -3 0 -8 -26 -12 -57z"/>
<path d="M9295 4120 c-49 -27 -147 -73 -217 -102 -70 -29 -126 -54 -124 -56
12 -11 396 166 431 199 16 16 2 9 -90 -41z"/>
<path d="M4435 4025 c9 -44 86 -202 147 -303 146 -241 350 -459 583 -621 74
-52 76 -52 61 -22 -9 17 -19 31 -22 31 -3 0 -2 -4 1 -10 32 -52 -172 108 -301
235 -195 192 -336 396 -437 630 -21 50 -35 77 -32 60z"/>
<path d="M7861 3903 c-6 -32 -17 -89 -26 -128 -16 -76 -19 -108 -4 -60 16 55
51 236 46 241 -2 3 -10 -21 -16 -53z"/>
<path d="M8895 3950 c-29 -11 -40 -27 -60 -90 -10 -30 -33 -91 -51 -134 -19
-44 -32 -81 -30 -83 5 -5 68 146 91 217 21 65 26 71 68 87 18 6 25 12 17 12
-8 0 -24 -4 -35 -9z"/>
<path d="M7796 3619 c-10 -33 -16 -62 -14 -65 3 -2 13 23 22 57 23 79 15 87
-8 8z"/>
<path d="M8687 3519 c-32 -60 -56 -109 -53 -109 7 0 119 210 115 215 -2 2 -30
-46 -62 -106z"/>
<path d="M8565 3313 c-73 -110 -131 -186 -219 -288 -39 -44 -60 -71 -47 -60
68 58 352 435 328 435 -2 0 -30 -39 -62 -87z"/>
<path d="M4968 3335 c40 -50 145 -153 192 -190 14 -11 -5 8 -42 43 -36 34 -95
93 -129 130 -39 43 -47 49 -21 17z"/>
<path d="M8175 2848 l-40 -43 43 40 c39 36 47 45 39 45 -2 0 -21 -19 -42 -42z"/>
<path d="M8092 2780 c-18 -17 -29 -30 -24 -30 5 0 21 14 37 30 37 38 30 38
-13 0z"/>
<path d="M7966 2680 c-80 -60 -103 -80 -76 -65 23 13 160 117 160 121 0 7 -4
4 -84 -56z"/>
<path d="M7763 2544 c-24 -14 -43 -27 -43 -30 0 -6 67 33 85 48 17 15 1 8 -42
-18z"/>
<path d="M7592 2454 c-87 -44 -115 -62 -70 -45 41 15 168 81 168 86 0 8 -12 3
-98 -41z"/>
<path d="M5430 2420 c8 -5 20 -10 25 -10 6 0 3 5 -5 10 -8 5 -19 10 -25 10 -5
0 -3 -5 5 -10z"/>
<path d="M7440 2383 c-19 -9 -91 -35 -160 -59 -69 -23 -120 -43 -114 -43 16
-1 230 72 284 97 25 11 41 20 35 20 -5 0 -26 -7 -45 -15z"/>
<path d="M5867 2265 c64 -19 211 -47 226 -42 6 2 -10 8 -38 12 -27 4 -85 15
-129 26 -90 22 -122 24 -59 4z"/>
<path d="M7095 2271 c-11 -5 -72 -18 -135 -29 -63 -11 -142 -25 -175 -31 -99
-18 -182 -39 -155 -40 14 0 58 8 99 19 41 11 87 20 102 20 16 0 81 11 146 25
131 27 190 43 158 44 -11 0 -29 -4 -40 -8z"/>
<path d="M6120 2214 c37 -8 88 -9 84 -2 -3 4 -26 7 -52 7 -26 -1 -40 -3 -32
-5z"/>
<path d="M6350 2200 c74 -5 161 -15 193 -23 31 -8 57 -11 57 -8 0 15 -124 33
-250 36 l-135 3 135 -8z"/>
<path d="M6940 2000 c30 -16 51 -29 46 -30 -5 0 28 -37 73 -81 193 -193 295
-425 308 -700 10 -196 -30 -374 -121 -545 -58 -109 -115 -182 -218 -280 -204
-192 -473 -292 -759 -282 -155 6 -184 -1 -105 -26 31 -10 59 -16 62 -13 3 2
-16 10 -41 16 -25 6 -45 12 -45 14 0 1 75 2 168 3 148 0 178 3 264 26 306 83
560 288 694 559 72 146 103 263 111 425 15 303 -88 581 -295 797 -65 67 -70
77 -29 56 13 -7 18 -7 12 -1 -14 14 -158 92 -170 91 -5 0 15 -13 45 -29z m75
-40 c3 -5 2 -10 -4 -10 -5 0 -13 5 -16 10 -3 6 -2 10 4 10 5 0 13 -4 16 -10z"/>
<path d="M7083 1922 c4 -6 22 -21 39 -34 17 -12 28 -17 25 -10 -4 6 -22 21
-39 34 -17 12 -28 17 -25 10z"/>
<path d="M7160 1867 c0 -2 15 -16 33 -33 l32 -29 -29 33 c-28 30 -36 37 -36
29z"/>
<path d="M7285 1738 c27 -32 51 -58 53 -58 7 0 -55 74 -79 95 -13 11 -1 -6 26
-37z"/>
<path d="M7370 1623 c17 -29 34 -53 37 -53 6 0 -37 71 -55 90 -7 8 0 -9 18
-37z"/>
<path d="M7424 1528 c9 -21 23 -55 32 -75 30 -70 55 -167 69 -273 l15 -105 -5
82 c-2 45 -14 119 -25 163 -20 79 -74 214 -93 235 -5 6 -2 -7 7 -27z"/>
<path d="M7526 954 c-3 -47 -15 -119 -26 -161 -12 -41 -18 -78 -15 -81 3 -3 5
-2 5 2 0 3 9 40 20 81 19 70 39 245 28 245 -3 0 -8 -39 -12 -86z"/>
<path d="M7464 684 c-14 -44 -41 -102 -72 -153 -18 -30 -30 -56 -28 -58 5 -5
67 104 96 170 12 27 19 51 16 54 -3 3 -8 -3 -12 -13z"/>
<path d="M7339 443 c-29 -35 -41 -53 -36 -53 2 0 17 16 31 35 28 36 31 49 5
18z"/>
<path d="M7237 324 c-26 -25 -47 -49 -47 -52 0 -3 23 16 50 43 28 27 50 51 50
52 0 8 -10 -1 -53 -43z"/>
<path d="M7101 209 c-66 -48 -76 -58 -36 -35 31 18 104 76 95 75 -3 0 -30 -18
-59 -40z"/>
<path d="M6952 123 c-40 -20 -71 -37 -68 -40 5 -5 146 65 146 72 0 6 7 9 -78
-32z"/>
<path d="M6050 101 c39 -23 50 -25 50 -12 0 5 -11 12 -24 15 -13 3 -32 8 -43
12 -10 3 -2 -4 17 -15z"/>
<path d="M6805 63 c-22 -8 -67 -20 -100 -28 -33 -7 -51 -13 -41 -14 25 -1 141
28 181 45 40 18 11 16 -40 -3z"/>
<path d="M6260 30 c14 -4 36 -8 50 -8 22 0 22 1 -5 8 -16 4 -39 8 -50 8 -16 0
-15 -2 5 -8z"/>
<path d="M6348 13 c6 -2 18 -2 25 0 6 3 1 5 -13 5 -14 0 -19 -2 -12 -5z"/>
<path d="M6608 13 c6 -2 18 -2 25 0 6 3 1 5 -13 5 -14 0 -19 -2 -12 -5z"/>
</g>
</svg>
