<?xml version="1.0" encoding="UTF-8"?>
<svg version="1.1" xmlns="http://www.w3.org/2000/svg" width="303" height="137">
<path d="M0 0 C5.94 1.485 5.94 1.485 12 3 C10.96641571 7.13433714 9.69456429 8.97206893 7.15625 12.21875 C5.90935055 14.13964915 5.43140673 15.76452874 5 18 C5.59683594 18.01417969 6.19367187 18.02835938 6.80859375 18.04296875 C19.09402575 18.71839369 35.86007789 22.08086825 44.4375 31.5 C47.78489562 35.51322636 48.12183846 39.16556636 48.19287109 44.29663086 C48.20893402 45.3555101 48.22499695 46.41438934 48.24154663 47.50535583 C48.28635041 52.36562271 48.32710223 57.22575587 48.35009766 62.08618164 C48.36659563 64.63770711 48.39380304 67.18918756 48.43212891 69.74047852 C48.48736398 73.44050817 48.50884856 77.13945529 48.5234375 80.83984375 C48.54610687 81.96325668 48.56877625 83.08666962 48.59213257 84.24412537 C48.56235344 95.60444115 45.03540464 106.705945 37 115 C32.29218577 119.43985151 27.30810745 122.82363229 21.6875 126 C20.18581344 126.86130919 18.68450959 127.72328596 17.18359375 128.5859375 C16.4654248 128.99682617 15.74725586 129.40771484 15.00732422 129.83105469 C11.63296175 131.79608114 8.35007995 133.9087609 5.078125 136.0390625 C2.47752201 137.24159697 0.85356299 137.23572798 -2 137 C-4.33666992 135.93359375 -4.33666992 135.93359375 -6.73046875 134.4375 C-7.61130127 133.8919043 -8.49213379 133.34630859 -9.3996582 132.78417969 C-10.319646 132.19540039 -11.23963379 131.60662109 -12.1875 131 C-13.13133545 130.40348633 -14.0751709 129.80697266 -15.04760742 129.19238281 C-28.83853057 120.37975723 -41.7500896 111.20490638 -45.58984375 94.421875 C-46.18880191 89.42485263 -46.14676677 84.46562281 -46.125 79.4375 C-46.12306641 78.37080078 -46.12113281 77.30410156 -46.11914062 76.20507812 C-46.07836142 68.76060824 -45.80993858 61.40515274 -45 54 C-44.34 54.33 -43.68 54.66 -43 55 C-42.98541748 55.70382813 -42.97083496 56.40765625 -42.95581055 57.1328125 C-42.91554265 81.48133502 -42.91554265 81.48133502 -35 104 C-34.67 89.15 -34.34 74.3 -34 59 C-30.37976554 61.89618757 -28.18505854 63.93585368 -25.46875 67.453125 C-23.72947833 69.28491112 -21.85068993 70.33013279 -19.6875 71.625 C-17.60546875 73.0859375 -17.60546875 73.0859375 -16 75 C-15.29784491 79.08429145 -15.55773214 82.89673704 -16 87 C-16 87.66 -16 88.32 -16 89 C-16 99 -16 109 -16 119 C-15.34 119 -14.68 119 -14 119 C-13.8571596 114.76417434 -13.71475403 110.52833436 -13.57275391 106.29248047 C-13.52437136 104.85107018 -13.47586935 103.4096639 -13.42724609 101.96826172 C-13.3574341 99.89812237 -13.28804973 97.82796906 -13.21875 95.7578125 C-13.1559082 93.88826904 -13.1559082 93.88826904 -13.09179688 91.98095703 C-13.04068384 90.32114289 -13 88.66060095 -13 87 C-13 84 -13 81 -13 78 C-8.82423832 78.68416434 -5.11919593 80.01365009 -1.1875 81.5625 C-0.02605469 82.01753906 1.13539062 82.47257812 2.33203125 82.94140625 C3.21246094 83.29074219 4.09289063 83.64007813 5 84 C5 91.33333333 5 98.66666667 5 106 C5.06459009 107.33766762 5.13834038 108.6749088 5.21875 110.01171875 C5.25935547 110.69451904 5.29996094 111.37731934 5.34179688 112.08081055 C5.42010742 113.37112183 5.42010742 113.37112183 5.5 114.6875 C5.665 117.430625 5.83 120.17375 6 123 C6.33 117.39 6.66 111.78 7 106 C7.66 106 8.32 106 9 106 C8.34 105.01 7.68 104.02 7 103 C6.77294922 101.00708008 6.77294922 101.00708008 6.8046875 98.76953125 C6.80968262 98.04612549 6.81467773 97.32271973 6.81982422 96.57739258 C6.83803223 95.66497803 6.85624023 94.75256348 6.875 93.8125 C6.91625 90.904375 6.9575 87.99625 7 85 C12.94 85 18.88 85 25 85 C25.33 93.58 25.66 102.16 26 111 C35.52965549 101.47034451 38.78635656 93.39969308 39.4375 79.8125 C39.15817199 72.74782912 37.1408719 65.50470129 31.875 60.5625 C18.16561798 50.52630683 -0.55501109 51.69501383 -16.76953125 51.46826172 C-18.98197972 51.43434897 -21.19401664 51.38936435 -23.40625 51.34375 C-24.69853516 51.32505859 -25.99082031 51.30636719 -27.32226562 51.28710938 C-31.20358852 50.98410647 -34.31283528 50.19255618 -38 49 C-37.67 48.01 -37.34 47.02 -37 46 C-35.28515625 45.3046875 -35.28515625 45.3046875 -33.0625 44.875 C-32.35222656 44.72804687 -31.64195313 44.58109375 -30.91015625 44.4296875 C-21.22675767 42.99992395 -11.6608281 42.81374505 -1.88916016 42.81469727 C0.59881018 42.81252289 3.08632714 42.79434646 5.57421875 42.77539062 C29.08031418 42.69343806 29.08031418 42.69343806 39 46 C38.96764079 40.79765916 38.96764079 40.79765916 36.7265625 36.2734375 C27.23574904 27.58466462 13.81495617 25.61200102 1.4375 25.6875 C0.47585937 25.69241455 -0.48578125 25.6973291 -1.4765625 25.70239258 C-14.11874423 25.90755448 -25.52627362 28.46401681 -37.3046875 33.01171875 C-40 34 -40 34 -42 34 C-42 33.34 -42 32.68 -42 32 C-31.31905775 22.80252195 -17.39218459 19.84028559 -4 17 C-3.96261719 16.19175781 -3.92523438 15.38351562 -3.88671875 14.55078125 C-3.82097656 13.48214844 -3.75523438 12.41351563 -3.6875 11.3125 C-3.60048828 9.72888672 -3.60048828 9.72888672 -3.51171875 8.11328125 C-3 5 -3 5 0 0 Z " fill="#C86E23" transform="translate(46,0)"/>
<path d="M0 0 C0.33 1.65 0.66 3.3 1 5 C1.680625 4.154375 2.36125 3.30875 3.0625 2.4375 C6 0 6 0 9.6875 0.0625 C13 1 13 1 15 3 C15.53109375 2.7834375 16.0621875 2.566875 16.609375 2.34375 C17.31578125 2.0653125 18.0221875 1.786875 18.75 1.5 C19.44609375 1.2215625 20.1421875 0.943125 20.859375 0.65625 C23 0 23 0 27 0 C27.495 2.475 27.495 2.475 28 5 C28.78375 4.360625 29.5675 3.72125 30.375 3.0625 C33.80155126 0.37020973 35.17866351 -0.18313766 39.4375 0.1875 C43.69456428 0.71365401 43.69456428 0.71365401 46 2.875 C47.79689196 6.69339541 48.17367311 9.80042665 48.31640625 13.98046875 C48.35830078 15.14384766 48.40019531 16.30722656 48.44335938 17.50585938 C48.48267578 18.72080078 48.52199219 19.93574219 48.5625 21.1875 C48.60568359 22.41404297 48.64886719 23.64058594 48.69335938 24.90429688 C48.7995309 27.93608381 48.90157952 30.96795315 49 34 C50.65 34.66 52.3 35.32 54 36 C54 36.99 54 37.98 54 39 C47.73 39 41.46 39 35 39 C35 38.01 35 37.02 35 36 C35.9590625 35.8453125 35.9590625 35.8453125 36.9375 35.6875 C37.618125 35.460625 38.29875 35.23375 39 35 C40.42781477 30.71655569 40.18430901 26.61152757 40.1875 22.125 C40.20586914 20.77728516 40.20586914 20.77728516 40.22460938 19.40234375 C40.23472976 14.8346773 40.19070769 11.13896552 38 7 C32.6913151 7.58174845 32.6913151 7.58174845 28 10 C27.58262128 12.71483594 27.58262128 12.71483594 27.70703125 15.8828125 C27.71669922 17.04941406 27.72636719 18.21601562 27.73632812 19.41796875 C27.76146484 20.64128906 27.78660156 21.86460938 27.8125 23.125 C27.82603516 24.35605469 27.83957031 25.58710937 27.85351562 26.85546875 C27.88896457 29.90407843 27.93837921 32.951825 28 36 C29.32 36.33 30.64 36.66 32 37 C32 37.66 32 38.32 32 39 C26.06 39 20.12 39 14 39 C14 38.34 14 37.68 14 37 C15.32 36.34 16.64 35.68 18 35 C18 25.76 18 16.52 18 7 C13.45804636 7.79286186 13.45804636 7.79286186 11 8.6875 C8.23012648 9.12029274 6.48890983 8.17531853 4 7 C1.08209117 10.2443646 0.63806213 12.31856006 0.70703125 16.640625 C0.7215332 18.24550781 0.7215332 18.24550781 0.73632812 19.8828125 C0.7740332 21.54957031 0.7740332 21.54957031 0.8125 23.25 C0.82603516 24.37664063 0.83957031 25.50328125 0.85351562 26.6640625 C0.88884355 29.44319264 0.9381748 32.22135363 1 35 C2.65 35.33 4.3 35.66 6 36 C6 36.66 6 37.32 6 38 C-0.27 38 -6.54 38 -13 38 C-13 37.34 -13 36.68 -13 36 C-11.02 35.505 -11.02 35.505 -9 35 C-9 25.76 -9 16.52 -9 7 C-11.475 6.01 -11.475 6.01 -14 5 C-11.96470413 2.96470413 -10.76582618 2.3615728 -8.125 1.375 C-7.10792969 0.98441406 -7.10792969 0.98441406 -6.0703125 0.5859375 C-4 0 -4 0 0 0 Z " fill="#8D4223" transform="translate(249,31)"/>
<path d="M0 0 C0.99 0 1.98 0 3 0 C3.48879639 1.18964355 3.97759277 2.37928711 4.48120117 3.60498047 C6.31317382 8.06081641 8.15013196 12.51458319 9.98852539 16.96777344 C10.78023037 18.88746859 11.57062137 20.80770622 12.35961914 22.72851562 C13.5005293 25.50537982 14.64630939 28.28019319 15.79296875 31.0546875 C16.13901657 31.8998996 16.48506439 32.74511169 16.84159851 33.61593628 C19.01761326 38.86496716 21.42156667 43.93037695 24.05415344 48.96682739 C25 51 25 51 25 53 C26.65 53.33 28.3 53.66 30 54 C30 54.66 30 55.32 30 56 C22.74 56 15.48 56 8 56 C8 55.34 8 54.68 8 54 C9.65 53.34 11.3 52.68 13 52 C12.38170447 46.92997663 11.13290367 43.97677524 9 39 C2.4 39 -4.2 39 -11 39 C-13.91110211 45.30648239 -13.91110211 45.30648239 -15 52 C-13.35 52.66 -11.7 53.32 -10 54 C-10 54.66 -10 55.32 -10 56 C-15.61 56 -21.22 56 -27 56 C-27 55.34 -27 54.68 -27 54 C-26.2575 53.63390625 -25.515 53.2678125 -24.75 52.890625 C-20.84669236 50.20710099 -19.7875562 47.04013489 -18 42.75 C-17.45001343 41.4810791 -17.45001343 41.4810791 -16.88891602 40.18652344 C-15.57337368 37.13221231 -14.2859804 34.06687511 -13 31 C-12.4403383 29.67431154 -11.88025869 28.34879946 -11.31982422 27.0234375 C-7.51751229 18.02765704 -3.74738195 9.01879793 0 0 Z M-1 14 C-2.33934716 16.95564708 -3.67044247 19.9149378 -5 22.875 C-5.3815625 23.71675781 -5.763125 24.55851562 -6.15625 25.42578125 C-6.5171875 26.23144531 -6.878125 27.03710938 -7.25 27.8671875 C-7.58515625 28.61081543 -7.9203125 29.35444336 -8.265625 30.12060547 C-9.12131741 31.97417611 -9.12131741 31.97417611 -9 34 C-3.39 34 2.22 34 8 34 C5.36 27.4 2.72 20.8 0 14 C-0.33 14 -0.66 14 -1 14 Z " fill="#8D4223" transform="translate(128,13)"/>
<path d="M0 0 C4.62189158 2.55659751 7.85743108 6.34721329 9.42578125 11.421875 C10.64029591 17.75207264 10.18002521 23.87665245 6.8125 29.4375 C2.37741772 34.22369297 -1.2238996 37.18634742 -7.875 37.75 C-12.65774909 37.66208182 -16.33554977 36.26061737 -20.1875 33.4375 C-24.97082886 28.33449322 -26.54692656 23.60257645 -26.390625 16.58203125 C-25.70336469 9.32614836 -22.64276114 5.37284023 -17.125 0.78515625 C-11.9092638 -2.84272477 -5.59706237 -2.48051628 0 0 Z M-16.1875 5.4375 C-18.80205074 11.89589903 -18.48162617 17.67012683 -17.1875 24.4375 C-15.28868662 28.91376402 -13.23619683 31.73836878 -9.1875 34.4375 C-5.64725858 34.51517129 -5.64725858 34.51517129 -2.1875 33.4375 C2.53921109 27.60788965 1.88450129 21.70233739 1.25390625 14.57421875 C0.57959172 9.7824084 -1.11718876 6.83997679 -4 3.0625 C-6.1464164 1.20989055 -6.1464164 1.20989055 -9.1875 0.9375 C-12.91713583 1.55910597 -13.95961854 2.41394659 -16.1875 5.4375 Z " fill="#8D4223" transform="translate(223.1875,32.5625)"/>
<path d="M0 0 C4.6612111 2.54507845 4.6612111 2.54507845 5.97265625 5.16796875 C6.09765625 8.23046875 6.09765625 8.23046875 5.97265625 11.16796875 C4.97265625 12.16796875 4.97265625 12.16796875 2.59765625 12.54296875 C-0.02734375 12.16796875 -0.02734375 12.16796875 -1.71484375 9.91796875 C-2.36453125 8.55671875 -2.36453125 8.55671875 -3.02734375 7.16796875 C-3.41921875 6.40484375 -3.81109375 5.64171875 -4.21484375 4.85546875 C-4.48296875 4.29859375 -4.75109375 3.74171875 -5.02734375 3.16796875 C-9.86720761 3.3550837 -9.86720761 3.3550837 -13.703125 5.921875 C-16.36075539 10.42965515 -16.47525608 15.59647209 -15.58984375 20.6796875 C-14.497182 24.43571225 -13.35669649 26.80301031 -10.71484375 29.73046875 C-7.40906179 31.4986777 -5.72143828 31.86061147 -2.02734375 31.16796875 C1.17936529 28.54429772 3.40499905 26.0158546 4.97265625 22.16796875 C5.63265625 22.16796875 6.29265625 22.16796875 6.97265625 22.16796875 C6.74489773 27.74805244 5.42008189 30.65255465 1.578125 34.72265625 C-1.60108008 37.58471435 -4.21931063 38.07818729 -8.40234375 38.54296875 C-12.792962 38.08876686 -15.66384295 37.0307002 -19.02734375 34.16796875 C-23.70304127 28.07967379 -24.73465802 21.63266038 -24.02734375 14.16796875 C-21.97241039 8.00316868 -19.53000463 3.56368347 -13.77734375 0.35546875 C-8.92867511 -1.17994298 -4.82058538 -1.97839053 0 0 Z " fill="#8D4223" transform="translate(185.02734375,31.83203125)"/>
<path d="M0 0 C2.16706727 0 4.33431347 -0.04765405 6.5 -0.125 C10 0 10 0 13 2 C13.99 1.34 14.98 0.68 16 0 C19.5 -0.375 19.5 -0.375 23 0 C25.75197531 2.48118598 25.99523889 3.94032746 26.29296875 7.671875 C26.27316751 9.03156035 26.23759202 10.3910934 26.1875 11.75 C26.16719727 12.79607422 26.16719727 12.79607422 26.14648438 13.86328125 C26.1112945 15.57585541 26.05749155 17.28802941 26 19 C26.99 19.33 27.98 19.66 29 20 C29 20.33 29 20.66 29 21 C25.37 21 21.74 21 18 21 C18.33 20.34 18.66 19.68 19 19 C19.66 19 20.32 19 21 19 C20.67 14.05 20.34 9.1 20 4 C19.01 3.67 18.02 3.34 17 3 C16.01 3.66 15.02 4.32 14 5 C13.41312216 8.34613512 13.41312216 8.34613512 13.3125 12.125 C13.24675781 13.40632813 13.18101562 14.68765625 13.11328125 16.0078125 C13.07589844 16.99523437 13.03851563 17.98265625 13 19 C13.99 19.33 14.98 19.66 16 20 C16 20.33 16 20.66 16 21 C12.37 21 8.74 21 5 21 C5.33 20.34 5.66 19.68 6 19 C6.66 19 7.32 19 8 19 C7.67 14.05 7.34 9.1 7 4 C6.01 3.67 5.02 3.34 4 3 C3.01 3.66 2.02 4.32 1 5 C0.41312216 8.34613512 0.41312216 8.34613512 0.3125 12.125 C0.24675781 13.40632813 0.18101562 14.68765625 0.11328125 16.0078125 C0.07589844 16.99523437 0.03851563 17.98265625 0 19 C0.99 19.33 1.98 19.66 3 20 C3 20.33 3 20.66 3 21 C-0.63 21 -4.26 21 -8 21 C-7.67 20.34 -7.34 19.68 -7 19 C-6.34 19 -5.68 19 -5 19 C-5.33 14.05 -5.66 9.1 -6 4 C-6.66 4 -7.32 4 -8 4 C-8 3.01 -8 2.02 -8 1 C-5.03549787 0.01183262 -3.08189674 -0.07704742 0 0 Z " fill="#E07F23" transform="translate(176,96)"/>
<path d="M0 0 C0.495 14.355 0.495 14.355 1 29 C1.99 29.33 2.98 29.66 4 30 C3.67 30.66 3.34 31.32 3 32 C0.04738505 32.68485161 -2.98078201 32.79079434 -6 33 C-6.72574219 33.07734375 -7.45148438 33.1546875 -8.19921875 33.234375 C-11.89896959 33.4880722 -13.84146354 33.09908529 -17 31.125 C-19.80032693 26.74948917 -19.92308185 23.0644761 -19 18 C-17.20353146 15.06576805 -16.0558929 13.52794645 -13 12 C-10.3276379 11.86584528 -7.67749512 11.95681459 -5 12 C-5 9.69 -5 7.38 -5 5 C-5.99 4.67 -6.98 4.34 -8 4 C-8 3.01 -8 2.02 -8 1 C-5 0 -5 0 0 0 Z M-12.125 15.4375 C-14.51566936 18.70474812 -14.63417639 20.89126325 -14.45703125 24.8671875 C-14.1158525 27.28741185 -14.1158525 27.28741185 -11.75 29.625 C-8.67371254 31.16314373 -8.10725368 30.99591464 -5 30 C-4.9189794 27.89646505 -4.86080093 25.79204048 -4.8125 23.6875 C-4.77769531 22.51574219 -4.74289062 21.34398437 -4.70703125 20.13671875 C-4.72904279 17.03274461 -4.72904279 17.03274461 -6.38671875 15.08203125 C-8.89424611 13.40022719 -9.64387081 13.75908908 -12.125 15.4375 Z " fill="#E07F23" transform="translate(274,84)"/>
<path d="M0 0 C4.95 0 9.9 0 15 0 C13.68 0.99 12.36 1.98 11 3 C10.35670908 5.79556905 10.35670908 5.79556905 10.390625 8.98046875 C10.35839844 10.14384766 10.32617188 11.30722656 10.29296875 12.50585938 C10.27169922 14.32827148 10.27169922 14.32827148 10.25 16.1875 C10.22035156 17.41404297 10.19070312 18.64058594 10.16015625 19.90429688 C10.08937101 22.93626453 10.03671587 25.96745933 10 29 C11.43874322 29.02033559 12.8775697 29.03483573 14.31640625 29.046875 C15.11763916 29.05557617 15.91887207 29.06427734 16.74438477 29.07324219 C19.59214012 28.98077259 21.55845832 28.47972223 24 27 C25.34410262 24.98264795 25.34410262 24.98264795 26 23 C26.66 23 27.32 23 28 23 C27.34 25.97 26.68 28.94 26 32 C17.42 32 8.84 32 0 32 C1.32 31.34 2.64 30.68 4 30 C4 20.76 4 11.52 4 2 C2.68 1.34 1.36 0.68 0 0 Z " fill="#E07F23" transform="translate(125,85)"/>
<path d="M0 0 C2.5625 1.6875 2.5625 1.6875 4 4 C4 5.65 4 7.3 4 9 C-0.62 9 -5.24 9 -10 9 C-9.46022435 12.47548841 -9.46022435 12.47548841 -8 16 C-5.33333333 18 -5.33333333 18 -2 18 C0.41390754 16.59097705 1.99469526 15.00530474 4 13 C3.68762196 15.88949684 3.35661121 17.58633099 1.4375 19.8125 C-2.05134933 21.51219583 -5.2479706 21.78167279 -9 21 C-12.57840133 18.48750545 -13.75915486 16.81285235 -15 12.625 C-15 8.115513 -14.16173305 5.93744234 -12 2 C-7.98344566 -0.67770289 -4.71928419 -0.69000365 0 0 Z M-6 2 C-8.23024131 3.23513282 -8.23024131 3.23513282 -10 5 C-10 5.66 -10 6.32 -10 7 C-7.03 7 -4.06 7 -1 7 C-1.66 5.68 -2.32 4.36 -3 3 C-3.99 2.67 -4.98 2.34 -6 2 Z " fill="#E07F23" transform="translate(248,96)"/>
<path d="M0 0 C0.66 0 1.32 0 2 0 C2 2.64 2 5.28 2 8 C3.65 8 5.3 8 7 8 C7 8.66 7 9.32 7 10 C5.35 10 3.7 10 2 10 C2.33 15.28 2.66 20.56 3 26 C4.32 25.34 5.64 24.68 7 24 C6.67 25.32 6.34 26.64 6 28 C2.625 28.625 2.625 28.625 -1 29 C-3 27 -3 27 -3.1953125 23.0859375 C-3.18200376 21.51550649 -3.15813602 19.94513779 -3.125 18.375 C-3.11597656 17.57320312 -3.10695312 16.77140625 -3.09765625 15.9453125 C-3.07406223 13.96341477 -3.03819065 11.98167019 -3 10 C-3.99 10 -4.98 10 -6 10 C-4.34643078 6.41726669 -2.32019297 3.19026533 0 0 Z " fill="#DF7F23" transform="translate(225,88)"/>
<path d="M0 0 C0.03738281 1.26457031 0.07476562 2.52914062 0.11328125 3.83203125 C0.17893833 5.4922173 0.24538576 7.15237222 0.3125 8.8125 C0.33505859 9.64587891 0.35761719 10.47925781 0.38085938 11.33789062 C0.41630859 12.14033203 0.45175781 12.94277344 0.48828125 13.76953125 C0.51446533 14.50792236 0.54064941 15.24631348 0.56762695 16.00708008 C0.9095904 18.45069878 0.9095904 18.45069878 4 21 C0.04 21 -3.92 21 -8 21 C-7.01 20.01 -6.02 19.02 -5 18 C-4.6363838 14.79861932 -4.6363838 14.79861932 -4.8125 11.3125 C-4.83957031 10.13300781 -4.86664063 8.95351562 -4.89453125 7.73828125 C-4.94673828 6.38283203 -4.94673828 6.38283203 -5 5 C-5.99 4.67 -6.98 4.34 -8 4 C-8 3.01 -8 2.02 -8 1 C-5.10765685 0.17361624 -3.11257569 0 0 0 Z " fill="#E07F23" transform="translate(214,96)"/>
<path d="M0 0 C0.03738281 1.26457031 0.07476562 2.52914062 0.11328125 3.83203125 C0.17893833 5.4922173 0.24538576 7.15237222 0.3125 8.8125 C0.33505859 9.64587891 0.35761719 10.47925781 0.38085938 11.33789062 C0.41630859 12.14033203 0.45175781 12.94277344 0.48828125 13.76953125 C0.51446533 14.50792236 0.54064941 15.24631348 0.56762695 16.00708008 C0.9095904 18.45069878 0.9095904 18.45069878 4 21 C0.04 21 -3.92 21 -8 21 C-7.01 20.01 -6.02 19.02 -5 18 C-4.6363838 14.79861932 -4.6363838 14.79861932 -4.8125 11.3125 C-4.83957031 10.13300781 -4.86664063 8.95351562 -4.89453125 7.73828125 C-4.94673828 6.38283203 -4.94673828 6.38283203 -5 5 C-5.99 4.67 -6.98 4.34 -8 4 C-8 3.01 -8 2.02 -8 1 C-5.10765685 0.17361624 -3.11257569 0 0 0 Z " fill="#E07F23" transform="translate(163,96)"/>
<path d="M0 0 C1.65 0.33 3.3 0.66 5 1 C4.67 1.99 4.34 2.98 4 4 C2.35 3.67 0.7 3.34 -1 3 C-0.67 2.01 -0.34 1.02 0 0 Z " fill="#E07F23" transform="translate(210,85)"/>
<path d="M0 0 C1.65 0.33 3.3 0.66 5 1 C4.67 1.99 4.34 2.98 4 4 C2.35 3.67 0.7 3.34 -1 3 C-0.67 2.01 -0.34 1.02 0 0 Z " fill="#E07F23" transform="translate(159,85)"/>
</svg>
